<svg width="30" height="20" viewBox="0 0 30 20" fill="none" xmlns="http://www.w3.org/2000/svg">
<path fill-rule="evenodd" clip-rule="evenodd" d="M11.6912 14.7059C11.2489 17.7049 8.81132 19.9904 5.88625 19.9904C2.63617 19.9904 0 17.1842 0 13.7126C0 10.2411 2.62714 7.43491 5.88625 7.43491C7.17725 7.43491 8.37797 7.8785 9.34397 8.63066L10.644 7.1649L9.38008 4.57088H8.23352C7.79115 4.57088 7.43906 4.19479 7.43906 3.72228C7.43906 3.24976 7.80018 2.86403 8.23352 2.86403H12.0975C12.5308 2.86403 12.892 3.24976 12.892 3.72228C12.892 4.19479 12.5399 4.57088 12.0975 4.57088H11.1044L12.2871 6.93346L20.313 5.71842L18.8685 1.78399C18.8414 1.72613 18.8234 1.70685 18.7421 1.70685H16.3497C15.9073 1.70685 15.5462 1.32112 15.5462 0.858245C15.5462 0.385728 15.9073 0 16.3497 0H19.0581C19.6268 0 19.9519 0.21215 20.1324 0.713597L22.6873 7.62777C23.1478 7.50241 23.6353 7.43491 24.1318 7.43491C27.3729 7.43491 30 10.2411 30 13.7126C30 17.1842 27.3729 20 24.1318 20C20.8727 20 18.2365 17.1842 18.2365 13.7126C18.2365 11.3693 19.4463 9.31533 21.2338 8.24494L20.8908 7.30955L16.458 12.3722C16.7559 12.7483 16.9365 13.2305 16.9365 13.7512C16.9365 14.9277 16.0427 15.8824 14.9323 15.8824C14.1378 15.8824 13.4517 15.4002 13.1267 14.7059H11.6912ZM10.4454 9.73963C11.1586 10.675 11.628 11.8419 11.7454 13.1148H13.0184C13.0816 12.9122 13.1628 12.7194 13.2802 12.5458L11.3933 8.68852L10.4454 9.73963ZM1.62504 13.7126C1.62504 16.2488 3.52092 18.2739 5.88625 18.2739C7.92657 18.2739 9.63286 16.7502 10.0482 14.7059H6.77099C6.54529 14.9373 6.22931 15.082 5.88625 15.082C5.16401 15.082 4.59525 14.4744 4.60427 13.7126C4.6133 12.9315 5.17304 12.3433 5.88625 12.3433C5.94042 12.3433 5.98556 12.3433 6.0307 12.3529L8.21547 9.89393C7.5474 9.43105 6.75293 9.16104 5.88625 9.16104C3.52994 9.16104 1.62504 11.1958 1.62504 13.7126ZM19.8616 13.7126C19.8616 16.2488 21.7665 18.2739 24.1318 18.2739C26.4791 18.2739 28.393 16.2392 28.393 13.7126C28.393 11.2054 26.4791 9.16104 24.1318 9.16104C23.8429 9.16104 23.563 9.18997 23.2922 9.24783L24.4478 12.3819C25.0075 12.5362 25.4048 13.0665 25.4048 13.7126C25.4048 14.4744 24.845 15.082 24.1318 15.082C23.4005 15.082 22.8318 14.4744 22.8408 13.7126C22.8408 13.4716 22.904 13.2498 22.9943 13.0569L21.8297 9.87464C20.647 10.6847 19.8616 12.1022 19.8616 13.7126ZM9.31688 11.0029L7.41198 13.1148H10.1204C10.0211 12.324 9.73217 11.6008 9.31688 11.0029ZM14.2823 13.7705C14.2823 14.1273 14.5712 14.4359 14.9413 14.4359C15.3024 14.4359 15.5823 14.1369 15.5823 13.7705C15.5823 13.3751 15.3024 13.0569 14.9413 13.0569C14.5802 13.0569 14.2823 13.3848 14.2823 13.7705ZM15.9623 6.90361L14.0602 9.89262H15.246V12.0417L17.2469 9.05274H15.7894L15.9623 6.90361Z" fill="white" fill-opacity="0.6"/>
</svg>
