<svg width="21" height="17" viewBox="0 0 21 17" fill="none" xmlns="http://www.w3.org/2000/svg">
<path fill-rule="evenodd" clip-rule="evenodd" d="M0.74528 7.00617C0.424973 7.50213 0.205117 7.89298 0.0879773 8.12726C-0.0293258 8.36187 -0.0293258 8.63801 0.0879773 8.87262C0.205117 9.1069 0.424973 9.49775 0.74528 9.99371C1.27542 10.8146 1.90094 11.6349 2.62122 12.4032C4.71776 14.6395 7.1835 15.9999 10 15.9999C12.8165 15.9999 15.2822 14.6395 17.3788 12.4032C18.0991 11.6349 18.7246 10.8146 19.2547 9.99371C19.575 9.49775 19.7949 9.1069 19.912 8.87262C20.0293 8.63801 20.0293 8.36187 19.912 8.12726C19.7949 7.89298 19.575 7.50213 19.2547 7.00617C18.7246 6.18531 18.0991 5.36495 17.3788 4.59665C15.2822 2.36035 12.8165 0.999939 10 0.999939C7.1835 0.999939 4.71776 2.36035 2.62122 4.59665C1.90094 5.36495 1.27542 6.18531 0.74528 7.00617ZM3.83712 11.2633C3.19022 10.5733 2.62433 9.83114 2.14535 9.0895C2.00941 8.879 1.88883 8.6813 1.78394 8.49994C1.88883 8.31858 2.00941 8.12088 2.14535 7.91038C2.62433 7.16874 3.19022 6.42659 3.83712 5.73656C5.64684 3.8062 7.71234 2.66661 10 2.66661C12.2877 2.66661 14.3532 3.8062 16.1629 5.73656C16.8098 6.42659 17.3757 7.16874 17.8547 7.91038C17.9906 8.12088 18.1112 8.31858 18.2161 8.49994C18.1112 8.6813 17.9906 8.879 17.8547 9.0895C17.3757 9.83114 16.8098 10.5733 16.1629 11.2633C14.3532 13.1937 12.2877 14.3333 10 14.3333C7.71234 14.3333 5.64684 13.1937 3.83712 11.2633ZM9.99999 11.8333C8.15904 11.8333 6.66666 10.3409 6.66666 8.49994C6.66666 6.65899 8.15904 5.16661 9.99999 5.16661C11.8409 5.16661 13.3333 6.65899 13.3333 8.49994C13.3333 10.3409 11.8409 11.8333 9.99999 11.8333ZM11.6667 8.49994C11.6667 9.42041 10.9205 10.1666 10 10.1666C9.07953 10.1666 8.33333 9.42041 8.33333 8.49994C8.33333 7.57946 9.07953 6.83327 10 6.83327C10.9205 6.83327 11.6667 7.57946 11.6667 8.49994Z" fill="black"/>
<mask id="mask0_2020_171" style="mask-type:luminance" maskUnits="userSpaceOnUse" x="0" y="1" width="20" height="15">
<path fill-rule="evenodd" clip-rule="evenodd" d="M0.74528 7.00617C0.424973 7.50213 0.205117 7.89298 0.0879773 8.12726C-0.0293258 8.36187 -0.0293258 8.63801 0.0879773 8.87262C0.205117 9.1069 0.424973 9.49775 0.74528 9.99371C1.27542 10.8146 1.90094 11.6349 2.62122 12.4032C4.71776 14.6395 7.1835 15.9999 10 15.9999C12.8165 15.9999 15.2822 14.6395 17.3788 12.4032C18.0991 11.6349 18.7246 10.8146 19.2547 9.99371C19.575 9.49775 19.7949 9.1069 19.912 8.87262C20.0293 8.63801 20.0293 8.36187 19.912 8.12726C19.7949 7.89298 19.575 7.50213 19.2547 7.00617C18.7246 6.18531 18.0991 5.36495 17.3788 4.59665C15.2822 2.36035 12.8165 0.999939 10 0.999939C7.1835 0.999939 4.71776 2.36035 2.62122 4.59665C1.90094 5.36495 1.27542 6.18531 0.74528 7.00617ZM3.83712 11.2633C3.19022 10.5733 2.62433 9.83114 2.14535 9.0895C2.00941 8.879 1.88883 8.6813 1.78394 8.49994C1.88883 8.31858 2.00941 8.12088 2.14535 7.91038C2.62433 7.16874 3.19022 6.42659 3.83712 5.73656C5.64684 3.8062 7.71234 2.66661 10 2.66661C12.2877 2.66661 14.3532 3.8062 16.1629 5.73656C16.8098 6.42659 17.3757 7.16874 17.8547 7.91038C17.9906 8.12088 18.1112 8.31858 18.2161 8.49994C18.1112 8.6813 17.9906 8.879 17.8547 9.0895C17.3757 9.83114 16.8098 10.5733 16.1629 11.2633C14.3532 13.1937 12.2877 14.3333 10 14.3333C7.71234 14.3333 5.64684 13.1937 3.83712 11.2633ZM9.99999 11.8333C8.15904 11.8333 6.66666 10.3409 6.66666 8.49994C6.66666 6.65899 8.15904 5.16661 9.99999 5.16661C11.8409 5.16661 13.3333 6.65899 13.3333 8.49994C13.3333 10.3409 11.8409 11.8333 9.99999 11.8333ZM11.6667 8.49994C11.6667 9.42041 10.9205 10.1666 10 10.1666C9.07953 10.1666 8.33333 9.42041 8.33333 8.49994C8.33333 7.57946 9.07953 6.83327 10 6.83327C10.9205 6.83327 11.6667 7.57946 11.6667 8.49994Z" fill="white"/>
</mask>
<g mask="url(#mask0_2020_171)">
<rect y="-1.50006" width="20" height="20" fill="#0093DD"/>
<rect y="-1.50006" width="20" height="20" fill="#0093DD"/>
</g>
<path d="M20.5 0.499939L0.316623 16.387" stroke="#0093DD"/>
</svg>
