<svg width="9" height="16" viewBox="0 0 9 16" fill="none" xmlns="http://www.w3.org/2000/svg">
<path d="M6.81539e-07 7.7959C0.00878972 8.10351 0.123048 8.36719 0.360352 8.60449L7.19824 15.293C7.40039 15.4863 7.6377 15.5918 7.92773 15.5918C8.5166 15.5918 8.97363 15.1348 8.97363 14.5459C8.97363 14.2646 8.85938 14.001 8.65723 13.7988L2.50488 7.7959L8.65723 1.79297C8.85938 1.59082 8.97363 1.33594 8.97363 1.0459C8.97363 0.457031 8.5166 -3.99549e-08 7.92774 -9.14353e-08C7.64649 -1.16023e-07 7.40039 0.105469 7.19824 0.298828L0.360352 6.99609C0.114259 7.22461 7.08432e-07 7.48828 6.81539e-07 7.7959Z" fill="url(#paint0_linear_17_443)"/>
<defs>
<linearGradient id="paint0_linear_17_443" x1="4.48682" y1="15.5918" x2="4.48682" y2="-3.9225e-07" gradientUnits="userSpaceOnUse">
<stop stop-color="#38BAEA"/>
<stop offset="1" stop-color="#4869F0"/>
</linearGradient>
</defs>
</svg>
