<svg width="4" height="7" viewBox="0 0 4 7" fill="none" xmlns="http://www.w3.org/2000/svg">
<path d="M4 3.5C3.99608 3.36189 3.94515 3.24352 3.83937 3.13698L0.791381 0.13416C0.701273 0.0473506 0.595495 0 0.46621 0C0.203722 0 0 0.205186 0 0.46956C0 0.595829 0.0509305 0.714205 0.141038 0.804961L2.88345 3.5L0.141038 6.19504C0.0509305 6.28579 0 6.40023 0 6.53044C0 6.79481 0.203722 7 0.46621 7C0.591577 7 0.701273 6.95265 0.791381 6.86584L3.83937 3.85908C3.94907 3.75648 4 3.63811 4 3.5Z" fill="white"/>
</svg>
