<svg width="257" height="161" viewBox="0 0 257 161" fill="none" xmlns="http://www.w3.org/2000/svg">
<path d="M213.231 4.95549C213.347 5.21912 213.373 5.58564 213.762 5.54063C213.866 5.50848 213.911 5.50205 213.963 5.48276C216.987 4.44752 220.011 3.40584 223.042 2.3706C223.534 2.20342 223.437 1.87549 223.294 1.50897C223.145 1.14246 223.003 0.88526 222.511 1.05887C219.538 2.09411 216.559 3.10363 213.581 4.11958C213.121 4.26747 213.056 4.56326 213.231 4.95549Z" fill="white"/>
<path d="M214.286 8.18975C214.85 10.2667 215.361 12.3629 215.879 14.4526C215.99 14.8899 216.08 15.2371 216.682 15.0506C217.233 14.877 217.226 14.5684 217.097 14.1118C216.806 13.0766 216.559 12.0285 216.294 10.9804C215.692 8.55627 215.705 8.60128 218.12 7.98399C218.962 7.7718 219.312 7.8361 219.473 8.7556C219.694 10.0159 220.056 11.2505 220.4 12.485C220.497 12.8323 220.438 13.3788 221.377 13.2438C221.701 13.2052 221.824 12.903 221.649 12.3179C221.371 11.3855 221.177 10.4274 220.943 9.4822C220.406 7.30241 220.412 7.33456 222.588 6.85873C223.378 6.68512 223.683 6.85873 223.838 7.66249C224.117 9.07067 224.531 10.4467 224.887 11.8356C224.997 12.2728 225.004 12.7873 225.748 12.5365C226.325 12.3372 226.228 12.0028 226.118 11.5784C225.619 9.64295 225.133 7.70107 224.654 5.75918C224.525 5.23835 224.376 4.98115 223.709 5.15476C220.762 5.9328 217.803 6.6401 214.85 7.3667C214.377 7.48244 214.125 7.60461 214.286 8.18975Z" fill="white"/>
<path d="M172.408 -0.00210381C171.612 0.698773 170.848 0.975259 169.792 0.975259C154.568 0.943109 139.35 0.95597 124.126 0.95597C121.438 0.95597 121.522 0.955976 121.412 3.60516C121.354 5.00049 121.736 5.39272 123.18 5.38629C137.576 5.32842 151.971 5.34771 166.36 5.367C166.774 5.367 167.273 5.11623 167.668 5.63063C166.405 6.86521 165.143 8.09977 164.346 9.67514C163.828 10.6911 163.135 10.9354 162.021 10.9354C145.864 10.8969 129.714 10.9033 113.557 10.9226C113.026 10.9226 112.424 10.6589 111.951 11.1541C129.105 11.1541 146.266 11.1541 163.42 11.1541C163.42 11.2569 163.42 11.3598 163.42 11.4627C146.247 11.4627 129.073 11.4627 111.9 11.4627C111.9 12.5944 111.9 13.7261 111.9 14.8578C128.49 14.8578 145.074 14.8578 161.665 14.8578C161.704 14.8256 161.73 14.7999 161.698 14.7356C161.62 14.5877 161.769 14.7292 161.736 14.8578C161.775 14.8578 161.821 14.8578 161.859 14.8578C161.859 14.9607 161.859 15.0635 161.859 15.1664C145.23 15.1664 128.594 15.1664 111.964 15.1664C112.463 15.5972 113.052 15.3658 113.596 15.3722C129.028 15.385 144.453 15.385 159.884 15.385C162.41 15.385 162.41 15.385 161.445 17.6999C158.848 23.9049 160.642 30.9973 165.894 35.2733C171.061 39.4849 178.528 40.0379 183.948 36.1413C187.756 33.4021 190.812 29.8013 193.338 25.8275C193.888 24.9594 194.4 24.1042 195.125 23.3455C201.115 17.0826 201.083 7.19314 195.099 0.988122C188.954 -5.39694 179.026 -5.84704 172.408 -0.00210381ZM192.302 21.6544C192.055 22.7732 192.023 22.7668 190.922 23.4226C190.657 18.15 188.5 13.8868 184.097 10.9419C179.68 7.98403 174.882 7.60467 169.747 9.43081C169.87 7.28959 170.886 6.15146 172.628 5.42487C178.029 3.17434 183.1 3.68876 187.607 7.39247C192.127 11.1026 193.558 15.9895 192.302 21.6544ZM195.403 18.5358C195.196 7.12884 184.751 -0.760858 173.878 2.13267C178.411 -2.43911 186.201 -2.8442 191.602 1.2196C196.977 5.27055 198.7 12.7294 195.403 18.5358Z" fill="white"/>
<path d="M227.063 8.33116C227.335 8.99345 225.722 9.46285 226.733 10.5753C227.244 9.72006 228.546 9.28924 228.06 8.00323C227.659 6.93584 226.551 7.05801 225.697 6.66577C225.483 7.97108 226.823 7.75245 227.063 8.33116Z" fill="white"/>
<path d="M225.405 50.686C222.744 50.0366 220.076 49.4321 217.401 48.8406C216.909 48.7312 216.281 48.3519 216.08 49.2907C215.886 50.1973 216.605 50.0108 217.026 50.1137C219.279 50.6603 221.546 51.1747 223.812 51.6955C223.825 51.792 223.845 51.8884 223.858 51.9913C221.364 52.2485 218.871 52.5121 216.378 52.7629C215.815 52.8208 215.245 52.75 215.083 53.5345C214.934 54.2611 215.497 54.4026 215.899 54.6598C217.88 55.9136 219.875 57.1546 221.869 58.4021C221.824 58.5178 221.779 58.64 221.733 58.7557C219.603 58.2799 217.479 57.8105 215.348 57.3411C214.889 57.2382 214.351 56.8396 214.131 57.6883C213.924 58.4792 214.474 58.5178 214.979 58.6336C217.751 59.2637 220.535 59.836 223.281 60.5561C224.363 60.8391 224.46 60.2925 224.648 59.5466C224.848 58.7429 224.207 58.6014 223.754 58.3185C221.513 56.9103 219.26 55.515 216.637 53.8882C217.298 53.8303 217.537 53.8046 217.777 53.7853C220.251 53.5602 222.718 53.258 225.192 53.1359C226.37 53.078 226.292 52.2678 226.474 51.5798C226.726 50.6217 225.858 50.8017 225.405 50.686Z" fill="white"/>
<path d="M227.128 29.3705C224.33 29.2869 221.533 29.2612 218.742 29.2033C218.191 29.1904 217.699 29.1326 217.725 29.9363C217.751 30.6758 218.269 30.5536 218.709 30.5536C220.982 30.56 223.255 30.56 225.528 30.56C225.561 30.6758 225.593 30.7915 225.619 30.9008C225.289 31.1259 224.965 31.3574 224.628 31.5696C222.498 32.9392 220.38 34.3152 218.23 35.6527C217.647 36.0127 217.479 36.4821 217.602 37.0737C217.744 37.7553 218.353 37.4852 218.755 37.4981C221.5 37.5752 224.246 37.6267 226.985 37.6588C227.471 37.6653 228.216 37.9932 228.209 37.003C228.203 36.0063 227.432 36.36 226.966 36.3535C224.784 36.315 222.601 36.3342 220.419 36.3342C220.6 35.7748 220.795 35.6334 221.002 35.4983C223.216 34.0773 225.425 32.637 227.665 31.2481C228.235 30.8944 228.449 30.47 228.358 29.8527C228.242 29.0104 227.555 29.3833 227.128 29.3705Z" fill="white"/>
<path d="M213.011 11.0702C212.629 11.0766 211.955 10.9802 211.968 11.6746C211.975 12.0476 211.994 12.607 212.512 12.6456C212.92 12.6777 213.471 12.6456 213.581 12.0411C213.458 11.6489 213.568 11.0638 213.011 11.0702Z" fill="white"/>
<path d="M227.173 43.2721C224.052 41.5746 220.898 39.9478 217.757 38.2888C217.194 39.3819 217.68 39.832 218.547 40.2693C219.227 40.6101 220.38 40.6487 220.38 41.6453C220.387 42.912 220.302 44.2752 219.823 45.4198C219.525 46.1271 218.237 45.9342 217.427 46.2364C217.233 46.3071 216.993 46.2943 216.838 46.41C216.404 46.7315 216.488 47.2588 216.514 47.6896C216.534 47.9596 216.929 47.8825 217.181 47.8118C220.425 46.9244 223.67 46.0628 226.901 45.1433C227.743 44.9054 227.924 43.6836 227.173 43.2721ZM221.934 45.1304C221.202 45.3233 221.17 44.9697 221.248 44.4231C221.364 43.6194 221.462 42.8156 221.591 41.7996C223.178 42.5905 224.589 43.2914 226.208 44.0952C224.66 44.4617 223.294 44.7703 221.934 45.1304Z" fill="white"/>
<path d="M224.648 18.2528C222.388 18.4843 220.141 18.8379 217.893 19.1787C217.414 19.2495 216.663 18.9922 216.786 20.0018C216.903 20.9598 217.505 20.6319 218.029 20.5612C219.823 20.3104 221.61 20.0468 223.404 19.8153C226.02 19.4809 226.027 19.4938 226.538 22.0465C226.623 22.4516 226.584 22.8953 227.218 22.831C227.769 22.7731 227.911 22.4709 227.814 22.053C227.484 19.6867 227.154 17.404 226.843 15.1149C226.785 14.6841 226.623 14.4719 226.15 14.5169C225.69 14.5619 225.509 14.7548 225.587 15.2114C225.671 15.7193 225.671 16.2466 225.813 16.7289C226.124 17.7898 225.723 18.137 224.648 18.2528Z" fill="white"/>
<path d="M0.161892 28.335C0.174843 27.8399 0.0841837 27.3384 0.259027 26.8497C0.168367 26.8304 0.0841837 26.8433 0 26.8818C0 27.3962 0 27.9106 0 28.425C0.0518054 28.3479 0.103611 28.3222 0.161892 28.335Z" fill="white"/>
<path d="M0.161865 28.4189C0.20041 28.4189 0.232531 28.4124 0.271075 28.4124C0.232531 28.3674 0.20041 28.3481 0.161865 28.3352C0.161865 28.3609 0.161865 28.3931 0.161865 28.4189Z" fill="white"/>
<path d="M0.161892 35.0225C0.161892 33.5693 0.161892 32.1161 0.161892 30.6629C0.161892 30.6372 0.161892 30.6115 0.161892 30.5793C0.110086 30.5793 0.0582811 30.5858 0 30.5858C0 32.129 0 33.6722 0 35.2154C0.0518054 35.2154 0.0971351 35.2219 0.14894 35.2219C0.14894 35.1576 0.155416 35.0868 0.161892 35.0225Z" fill="white"/>
<path d="M0.161892 30.489C0.161892 29.8139 0.161892 29.1451 0.161892 28.47C0.161892 28.4507 0.161892 28.4314 0.161892 28.4121C0.110086 28.4185 0.0518054 28.4185 0 28.425C0 29.1451 0 29.8653 0 30.5855C0.0518054 30.5083 0.103611 30.4826 0.161892 30.489Z" fill="white"/>
<path d="M0.142456 35.3184C0.18131 35.3184 0.22664 35.2926 0.271969 35.2345C0.233115 35.2345 0.187786 35.228 0.148932 35.228C0.148932 35.2538 0.142456 35.2861 0.142456 35.3184Z" fill="white"/>
<path d="M0.161865 30.4893C0.161865 30.5218 0.161865 30.5478 0.161865 30.5803C0.201205 30.5803 0.240544 30.5803 0.279883 30.5738C0.240544 30.5218 0.201205 30.5023 0.161865 30.4893Z" fill="white"/>
<path d="M111.913 14.8513C111.932 14.9542 111.951 15.0571 111.977 15.16C112.133 15.0764 112.295 15.0314 112.457 15.0056C112.269 14.9992 112.081 14.9606 111.913 14.8513Z" fill="white"/>
<path d="M161.536 14.9546C161.587 14.9481 161.639 14.9481 161.691 14.9417C161.73 14.9159 161.743 14.8836 161.756 14.8513C161.73 14.8513 161.71 14.8513 161.685 14.8513C161.678 14.8578 161.672 14.8642 161.659 14.8771C161.613 14.9094 161.574 14.9352 161.536 14.9546Z" fill="white"/>
<path d="M113.175 14.9991C113.337 15.012 113.493 15.0185 113.648 15.0185C129.177 15.012 144.705 15.012 160.234 15.012C160.428 15.012 160.629 15.012 160.823 15.0056C160.759 14.9991 160.7 14.9927 160.635 14.9927C144.815 14.9991 128.995 14.9991 113.175 14.9991Z" fill="white"/>
<path d="M0.608707 36.0513C0.647561 33.4857 0.63461 30.9137 0.615183 28.3481C0.615183 27.8529 0.790026 27.3064 0.330253 26.8949L0.259021 26.8499C0.265497 27.3707 0.265497 27.8915 0.271972 28.4059C0.271972 29.1261 0.278448 29.8527 0.278448 30.5729C0.278448 32.1225 0.278448 33.6722 0.278448 35.2282C0.20074 35.8455 0.621659 36.5335 0.00646973 37.0672C0.00646973 37.3759 0.00646973 37.6845 0.00646973 37.9932C0.123032 38.0896 0.24607 38.1925 0.362632 38.2889C0.87421 37.5945 0.595756 36.7972 0.608707 36.0513Z" fill="white"/>
<path d="M0.142465 35.3182C0.0906594 35.3246 0.0453297 35.2925 0 35.2153C0 35.8326 0 36.4499 0 37.0672C0.278454 36.5013 0.142465 35.9034 0.142465 35.3182Z" fill="white"/>
<path d="M111.964 11.1477C111.951 11.2506 111.932 11.3535 111.919 11.4563C112.087 11.347 112.269 11.3085 112.45 11.302C112.282 11.2763 112.12 11.2313 111.964 11.1477Z" fill="white"/>
<path d="M113.635 11.2893C113.48 11.2893 113.318 11.3022 113.162 11.3086C129.546 11.3022 145.936 11.3022 162.319 11.3151C162.436 11.3151 162.565 11.2892 162.688 11.2634C162.442 11.2699 162.17 11.3022 161.898 11.3022C145.813 11.2957 129.727 11.3022 113.635 11.2893Z" fill="white"/>
<path d="M41.6191 52.8593C41.5284 52.5249 41.5155 52.1134 40.7125 52.1906C40.3564 52.197 40.188 52.4928 40.3693 53.0844C40.6801 54.1132 40.8744 55.1806 41.2435 56.1901C41.6062 57.1868 41.2176 57.5147 40.2981 57.7333C37.9927 58.2992 35.7133 58.955 33.4144 59.5402C32.8446 59.6816 32.4431 59.8038 32.6568 60.5368C32.8575 61.2313 33.2655 61.0255 33.7253 60.9033C36.5616 60.1382 39.4044 59.3858 42.2472 58.6592C42.8754 58.4985 43.0956 58.267 42.8948 57.5983C42.4415 56.0293 42.0465 54.4411 41.6191 52.8593Z" fill="white"/>
<path d="M41.0234 49.8245C40.8615 49.0915 40.3758 49.3165 39.9484 49.3937C37.0603 49.8952 34.1721 50.4096 31.284 50.9048C30.7853 50.9884 30.3709 51.0269 30.5263 51.7214C30.6623 52.3451 30.9926 52.4415 31.3746 52.3065C34.4182 51.7664 37.3063 51.2455 40.1945 50.7504C40.7579 50.654 41.1917 50.5768 41.0234 49.8245Z" fill="white"/>
<path d="M256.605 26.3752C256.605 26.3427 256.599 26.3102 256.599 26.2712C256.599 26.3102 256.599 26.3427 256.599 26.3818C256.599 26.3818 256.605 26.3817 256.605 26.3752Z" fill="white"/>
<path d="M30.74 48.455C33.7123 48.0563 36.6912 47.6898 39.67 47.3426C40.2722 47.2719 40.4535 47.0532 40.3693 46.4617C40.0844 44.4233 39.8448 42.385 39.5858 40.3467C39.5275 39.8966 39.5599 39.395 38.8152 39.5108C38.051 39.6329 38.2971 40.1345 38.3489 40.5589C38.5302 42.0892 38.731 43.6196 38.9447 45.3043C39.126 45.8251 38.8346 46.0823 38.1611 46.1145C37.5977 46.1402 37.0279 46.2173 36.471 46.3331C35.7004 46.4874 35.3636 46.2816 35.3118 45.4393C35.2212 44.1083 34.9751 42.7901 34.8262 41.4655C34.7744 41.0025 34.7031 40.681 34.1074 40.7389C33.4727 40.8032 33.531 41.1954 33.5828 41.6198C33.7059 42.6422 33.6994 43.6967 33.9778 44.6741C34.4441 46.2881 33.8419 46.7703 32.2812 46.9053C31.1609 47.0018 30.8371 46.6932 30.7789 45.6515C30.7076 44.3205 30.5004 42.9959 30.3191 41.6713C30.2673 41.3048 30.3256 40.7968 29.6586 40.8675C28.9981 40.9382 28.9981 41.3048 29.0758 41.8449C29.3477 43.7803 29.5938 45.7158 29.7946 47.6577C29.8593 48.2942 30.0406 48.545 30.74 48.455Z" fill="white"/>
<path d="M36.9955 -4.90189C36.4127 -4.90832 36.0566 -4.76686 35.8105 -4.19458C35.5579 -3.59015 35.7846 -3.25579 36.2055 -2.87642C38.5173 -0.754493 40.8097 1.38672 43.128 3.50221C43.3546 3.70797 43.6137 4.40885 44.0411 3.74656C44.2483 3.41862 44.6174 2.96208 44.0864 2.52484C43.6072 2.1326 43.1474 1.72108 42.7071 1.29027C42.4286 1.01377 41.8523 0.814446 42.0077 0.370771C42.4545 -0.876662 42.8625 -2.1884 43.5878 -3.28151C43.9957 -3.8988 45.0513 -3.50656 45.7895 -3.44869C46.8191 -3.3651 47.3501 -3.71875 47.4408 -4.89546C43.9116 -4.88903 40.4535 -4.8826 36.9955 -4.90189ZM42.0725 -2.88928C41.7163 -2.05337 41.3796 -1.21103 40.9845 -0.252946C39.7088 -1.38464 38.5367 -2.41989 37.2287 -3.5773C38.8217 -3.5773 40.2657 -3.5773 41.7033 -3.5773C42.2797 -3.5773 42.2408 -3.28794 42.0725 -2.88928Z" fill="white"/>
<path d="M34.4506 19.6416C34.1527 20.1689 34.198 20.754 34.1721 21.3263C34.5283 20.8055 34.1915 20.1753 34.4506 19.6416Z" fill="white"/>
<path d="M256.689 28.4637C256.644 28.4444 256.598 28.4123 256.56 28.3673C256.56 28.3673 256.56 28.3673 256.56 28.3608C256.56 28.4509 256.553 28.5409 256.553 28.6309C256.592 28.573 256.637 28.5152 256.689 28.4637Z" fill="white"/>
<path d="M35.0982 20.7153C34.5801 21.9178 35.5968 21.7184 36.199 21.9049C35.6292 21.6927 34.8909 21.6348 35.0982 20.7153Z" fill="white"/>
<path d="M256.553 28.6309C256.475 28.7466 256.417 28.8559 256.385 28.9717C256.385 29.1131 256.385 29.2546 256.385 29.396C256.411 29.5054 256.462 29.6082 256.534 29.7175C256.54 29.3575 256.547 28.9909 256.553 28.6309Z" fill="white"/>
<path d="M29.5679 38.1797C32.5662 38.1218 35.5709 38.0639 38.5691 38.0061C38.867 37.9996 39.2102 38.0575 39.2879 37.6331C39.3591 37.2087 39.1519 36.9001 38.7763 36.8036C38.3878 36.7008 37.9669 36.7136 37.5589 36.7136C35.5515 36.7072 33.544 36.7072 31.1804 36.7072C31.8409 36.2249 32.2424 35.9292 32.6568 35.6398C34.606 34.2895 36.5487 32.9199 38.5238 31.6082C39.0807 31.2352 39.2426 30.8108 39.1908 30.1935C39.1519 29.7884 38.9382 29.6791 38.5885 29.6856C35.4349 29.7499 32.2812 29.8142 29.1211 29.872C28.6095 29.8785 28.5707 30.1871 28.5707 30.5922C28.5707 31.068 28.8038 31.2159 29.2377 31.2031C29.9111 31.1838 30.5846 31.1773 31.2581 31.1773C32.9612 31.1709 34.6643 31.1773 36.6976 31.1773C36.1343 31.5889 35.8947 31.7689 35.6486 31.9425C33.5246 33.4086 31.42 34.8939 29.2701 36.3278C28.6872 36.7201 28.5901 37.2023 28.7002 37.781C28.7844 38.2633 29.2053 38.1861 29.5679 38.1797Z" fill="white"/>
<path d="M31.5494 22.6125C32.4107 22.754 33.8483 22.1881 33.9131 23.9371C33.9195 24.1686 34.5736 24.2522 34.6383 23.9178C34.852 22.7732 35.6356 23.159 36.2832 23.2362C39.8772 23.6735 39.8772 23.6799 40.1232 20.0919C40.1297 19.989 40.0973 19.8926 40.0844 19.7897C39.6246 19.1724 39.6181 18.5551 40.0844 17.9378C40.1103 16.9154 39.5598 16.1696 38.7957 15.6166C36.7818 14.1634 34.5347 13.8226 32.197 14.6585C30.1118 15.4044 29.7881 17.2755 29.542 19.1467C29.5096 19.3975 29.4902 19.6547 29.4578 19.9119C29.1146 22.2717 29.1275 22.2074 31.5494 22.6125ZM34.2822 15.6873C35.3183 15.6937 36.335 15.8416 37.2804 16.311C38.854 17.0826 39.7153 20.587 38.5302 21.8409C37.928 22.4775 36.989 21.7316 36.2054 21.9052C35.383 21.9245 34.3081 22.1817 35.1046 20.7156C35.2924 20.3234 35.2082 19.9247 35.137 19.5325C35.0916 19.2817 35.3636 18.8445 34.865 18.8445C34.3405 18.8445 34.4376 19.2946 34.457 19.6418C34.4635 20.2205 34.7225 20.8378 34.1786 21.3265C34.0296 21.3586 33.8548 21.4679 33.7382 21.4229C32.7215 21.0436 30.8695 21.8602 30.7594 20.3427C30.5069 17.1084 31.7955 15.6744 34.2822 15.6873Z" fill="white"/>
<path d="M27.2885 45.2913C27.1136 44.5004 28.6289 44.0375 28.221 42.9379C28.1951 42.8672 28.1174 42.8093 28.0591 42.7515C25.3458 44.9763 25.417 45.6321 28.6678 47.5354C28.9398 46.1723 27.4568 46.0437 27.2885 45.2913Z" fill="white"/>
<path d="M123.012 159.174C126.444 159.013 129.876 159.02 133.302 159.168C133.729 159.187 134.267 159.264 134.26 159.92C141.759 159.56 149.199 158.673 156.511 156.956C190.657 148.931 217.337 130.277 236.543 101.156C246.088 86.6815 252.111 70.7928 255.057 53.7596C255.938 48.6541 256.553 43.4971 256.624 38.3017C256.372 38.0252 256.327 37.7165 256.333 37.395C256.268 37.17 256.281 36.9449 256.365 36.7199C256.365 36.707 256.365 36.6941 256.365 36.6813C256.365 36.2247 256.365 35.7618 256.365 35.3052C256.132 33.8135 256.132 32.3153 256.365 30.8171C256.365 30.3477 256.365 29.8718 256.365 29.4024C256.327 29.261 256.327 29.1195 256.365 28.9781C256.365 28.6308 256.365 28.2836 256.365 27.9364C256.262 27.5892 256.262 27.2419 256.352 26.8883C256.372 26.6761 256.43 26.4703 256.586 26.2839L256.728 26.2774C256.21 19.3651 255.446 12.4914 253.918 5.71407C247.163 -24.2308 231.635 -48.7615 207.416 -67.7173C186.001 -84.4741 161.484 -93.3412 134.234 -94.7236L134.228 -94.5886C134.189 -94.5822 134.15 -94.5757 134.111 -94.5693C134.098 -94.5564 134.092 -94.5436 134.079 -94.5307C133.638 -94.3121 133.205 -94.2671 132.777 -94.4086C131.812 -94.3314 130.847 -94.3185 129.876 -94.3378C128.84 -94.1642 127.804 -94.1835 126.761 -94.3957C126.535 -94.3957 126.314 -94.3957 126.088 -94.3957C125.932 -94.3893 125.777 -94.3828 125.615 -94.3764C125.408 -94.3057 125.201 -94.2992 124.987 -94.3378C124.495 -94.3057 124.003 -94.2992 123.517 -94.3764C123.368 -94.3828 123.213 -94.4086 123.057 -94.4471C122.999 -94.4729 122.954 -94.505 122.915 -94.5436C122.863 -94.5629 122.805 -94.5757 122.746 -94.6015L122.74 -94.7429C107.749 -93.9649 93.2303 -91.0006 79.4241 -85.0914C44.7793 -70.2444 20.7934 -45.2185 7.62834 -10.0846C3.16661 1.81744 0.828888 14.1953 0.330261 26.8947C1.12677 27.0169 1.05554 27.6985 1.07496 28.2065C1.15915 31.1193 1.15267 34.0321 1.08144 36.9449C1.06849 37.4657 1.12677 38.1216 0.36264 38.2888C0.453299 43.1756 1.06201 48.0046 1.81967 52.8272C4.10558 67.3077 8.76806 81.0038 16.0014 93.7482C33.2461 124.13 58.6825 144.552 92.2783 154.827C101.992 157.798 111.984 159.399 122.151 159.843C122.17 159.29 122.636 159.193 123.012 159.174ZM5.67269 32.3796C5.86049 -34.7504 61.1822 -89.5539 128.555 -89.3674C196.316 -89.1745 251.405 -34.4224 251.321 32.6496C251.237 99.8117 195.967 154.641 128.432 154.551C60.7224 154.467 5.4849 99.4902 5.67269 32.3796Z" fill="white"/>
<path d="M131.865 160.044C131.859 160.005 131.839 159.966 131.787 159.92C131.78 159.959 131.78 159.998 131.773 160.037C131.806 160.044 131.833 160.044 131.865 160.044Z" fill="white"/>
<path d="M218.832 106.943C257.376 61.0833 254.805 -6.58026 211.625 -49.6489C169.591 -91.5665 103.073 -95.7074 56.3707 -59.2875C8.0946 -21.6395 1.22391 39.5876 22.4641 82.354C22.885 81.711 23.2218 81.1966 23.565 80.6822C33.6476 65.5265 52.1615 59.0707 68.8429 64.98C95.3996 74.3872 104.491 107.804 86.5733 129.988C84.1708 132.965 81.3474 135.511 78.2067 137.788C119.107 158.087 179.797 153.381 218.832 106.943ZM69.5487 60.6847C51.9738 54.8719 36.8013 59.9838 23.9082 72.934C22.8786 70.8249 22.2116 68.6194 21.5057 66.4396C8.32773 25.9173 20.0681 -19.1832 51.378 -48.35C67.8262 -63.6728 87.1367 -73.3823 109.342 -77.311C158.537 -86.0238 208.73 -60.0977 229.99 -15.1001C238.441 2.78835 241.989 21.577 240.468 41.2595C239.101 58.9357 233.688 75.3581 224.408 90.5138C223.514 91.9734 223.521 91.9541 222.498 90.5266C213.471 77.9944 201.309 71.3779 185.677 71.4293C182.2 71.4422 178.754 71.9566 175.42 72.9726C174.37 73.2941 173.846 73.0176 173.205 72.246C170.44 68.9023 168.516 65.115 167.137 61.0383C164.871 54.3189 162.611 47.5931 160.344 40.8736C158.868 36.4948 156.737 32.4695 153.745 28.9073C151.434 26.1552 148.649 24.7535 144.867 24.7277C128.192 24.612 111.518 24.2712 94.8427 24.0333C88.4642 23.9433 83.0635 26.0395 79.6314 31.6015C75.8625 37.7101 76.1086 44.0951 79.1263 50.4673C79.6702 51.6119 80.648 52.4028 81.5935 53.2065C87.6418 58.3699 93.6771 63.5461 99.5376 68.9152C101.383 70.6063 102.983 72.4517 103.896 74.8308C104.828 77.2614 105.055 79.6598 104.278 82.2061C102.769 87.1637 101.403 92.1727 99.8808 97.4775C96.4228 79.5184 87.0071 66.4589 69.5487 60.6847ZM190.877 125.236C175.083 135.724 157.721 141.89 138.78 143.62C121.412 145.208 104.608 142.861 88.3282 136.701C87.9137 136.547 87.4086 136.508 87.059 135.981C89.2801 133.666 91.2811 131.152 93.1331 128.265C93.9814 131.178 96.0019 132.579 98.5338 133.377C101.655 134.367 105.677 132.451 106.875 129.435C113.525 112.659 120.124 95.8572 126.865 79.1197C128.037 76.2069 127.985 73.532 126.755 70.7928C124.864 66.5682 123.031 62.3115 120.726 58.2863C120.027 57.0646 119.437 55.8107 119.664 54.3446C119.819 53.3223 120.227 52.7436 121.477 52.7628C129.76 52.8914 138.048 52.9493 146.331 52.975C147.367 52.9815 147.736 53.4123 148.086 54.2803C150.521 60.2796 152.832 66.3432 155.999 72.0209C157.333 74.4064 158.855 76.6763 160.571 78.8046C161.205 79.5955 161.154 79.962 160.344 80.5793C155.235 84.5081 151.265 89.3949 148.176 95.0213C147.561 96.1401 147.535 96.841 148.578 97.7412C150.695 99.5673 150.631 99.6316 151.965 97.1303C154.769 91.8705 158.544 87.4338 163.271 83.7686C163.996 83.2028 164.482 83.1642 165.24 83.7493C168.756 86.4564 172.344 89.0799 176.197 91.3111C180.386 93.7352 183.786 92.5521 185.658 88.0639C186.247 86.6493 185.93 85.344 185.146 84.1094C184 82.3026 182.413 80.9008 180.768 79.5569C179.778 78.7532 178.8 77.9237 177.699 77.0106C179.467 76.3676 181.112 76.2197 182.737 76.0333C197.404 74.3293 213.03 82.2833 220.354 95.0856C220.879 96.0051 220.451 96.4873 220.004 97.1175C212.014 108.241 202.319 117.642 190.877 125.236Z" fill="white"/>
<path d="M125.758 160.005C125.751 160.011 125.758 160.024 125.758 160.031C125.79 160.031 125.823 160.031 125.856 160.031C125.856 159.992 125.856 159.946 125.856 159.907C125.817 159.907 125.784 159.94 125.758 160.005Z" fill="white"/>
<path d="M124.294 160.029C123.562 159.978 122.824 160.145 122.105 159.927C122.118 160.017 122.125 160.1 122.131 160.19H124.307C124.307 160.132 124.294 160.081 124.294 160.029Z" fill="white"/>
<path d="M257 29.9685V28.4253C256.909 28.4832 256.819 28.496 256.741 28.4767C256.734 28.9654 256.728 29.4477 256.728 29.9364C256.806 29.9106 256.896 29.9235 257 29.9685Z" fill="white"/>
<path d="M124.281 159.92C124.806 159.914 125.324 159.907 125.848 159.901C127.823 159.907 129.805 159.914 131.78 159.92C132.395 159.978 133.082 159.586 133.626 160.184H134.247C134.247 160.094 134.254 160.004 134.267 159.914C134.027 159.566 133.664 159.566 133.302 159.566C129.863 159.566 126.425 159.566 122.986 159.566C122.675 159.566 122.364 159.579 122.144 159.843L122.099 159.914C122.831 159.92 123.556 159.92 124.281 159.92Z" fill="white"/>
<path d="M131.54 160.029C129.682 160.029 127.83 160.029 125.971 160.029C125.932 160.029 125.887 160.029 125.848 160.029C125.848 160.081 125.855 160.133 125.855 160.191H131.76C131.76 160.139 131.767 160.094 131.773 160.042C131.696 160.042 131.618 160.036 131.54 160.029Z" fill="white"/>
<path d="M124.406 160.031C124.393 159.992 124.36 159.959 124.288 159.92C124.294 159.953 124.294 159.992 124.294 160.031C124.301 160.031 124.301 160.031 124.307 160.031C124.34 160.031 124.373 160.031 124.406 160.031Z" fill="white"/>
<path d="M131.864 160.042C131.864 160.062 131.871 160.088 131.858 160.107C131.825 160.159 131.793 160.191 131.76 160.191H133.625C133.056 159.913 132.453 160.042 131.864 160.042Z" fill="white"/>
<path d="M125.758 160.029C125.304 160.029 124.857 160.029 124.404 160.029C124.411 160.049 124.417 160.068 124.411 160.094C124.378 160.158 124.346 160.191 124.307 160.191H125.861C125.771 160.139 125.745 160.081 125.758 160.029Z" fill="white"/>
<path d="M256.599 26.3804C256.579 26.3932 256.56 26.4125 256.54 26.4254C256.463 26.5797 256.411 26.7276 256.372 26.8819C256.34 27.1713 256.385 27.4735 256.385 27.7564C256.385 27.8143 256.385 27.8657 256.385 27.9236C256.43 28.0715 256.482 28.2129 256.56 28.3544C256.566 27.705 256.579 27.0427 256.599 26.3804Z" fill="white"/>
<path d="M256.728 36.1798C256.728 36.1734 256.728 36.1734 256.728 36.167C256.728 36.1734 256.722 36.1734 256.722 36.1798C256.722 36.1734 256.728 36.1798 256.728 36.1798Z" fill="white"/>
<path d="M256.747 38.0381L256.883 38.0574L257.006 37.9996V36.1477C256.909 36.1927 256.819 36.2056 256.734 36.1863C256.734 36.7971 256.741 37.4144 256.747 38.0381Z" fill="white"/>
<path d="M256.728 36.1671C256.819 36.1607 256.909 36.1542 257 36.1478V29.9749C256.909 29.9749 256.812 29.9685 256.722 29.9685C256.722 32.0326 256.728 34.0966 256.728 36.1671Z" fill="white"/>
<path d="M256.709 29.9428C256.637 29.8657 256.586 29.7949 256.534 29.7178C256.534 29.8399 256.534 29.9621 256.527 30.0843C256.579 30.0136 256.637 29.9685 256.709 29.9428Z" fill="white"/>
<path d="M256.722 29.9628C256.722 29.9562 256.722 29.9429 256.722 29.9363C256.715 29.9363 256.709 29.9429 256.709 29.9429C256.709 29.9495 256.715 29.9562 256.722 29.9628Z" fill="white"/>
<path d="M256.734 28.483C256.734 28.4572 256.734 28.4314 256.734 28.4121C256.715 28.4314 256.702 28.4508 256.683 28.4701C256.702 28.4701 256.721 28.4765 256.734 28.483Z" fill="white"/>
<path d="M256.734 28.4058C256.825 28.4058 256.909 28.4122 256.994 28.4251V26.2646C256.909 26.2324 256.819 26.2324 256.734 26.2646C256.689 26.2967 256.644 26.3353 256.599 26.3675C256.65 27.0555 256.696 27.7306 256.734 28.4058Z" fill="white"/>
<path d="M31.9833 8.68481C32.4561 11.1668 34.7484 12.8965 37.6366 12.9415C40.1621 12.9865 42.0401 11.4755 42.5646 8.9806C42.0919 8.254 42.066 7.53383 42.5905 6.82009C42.0724 4.32522 39.7218 2.67912 36.7365 2.7177C34.2174 2.74986 32.4561 4.28664 32.0157 6.82652C32.4755 7.45667 32.4949 8.07395 31.9833 8.68481ZM36.7753 4.1066C39.5404 4.16447 41.6968 5.95846 41.5868 8.11253C41.4896 10.1573 39.8707 11.5976 37.7596 11.5269C35.0399 11.4369 32.9871 9.73934 33.0259 7.61741C33.0777 5.57265 34.6902 4.06159 36.7753 4.1066Z" fill="white"/>
<path d="M256.573 36.3665C256.488 36.4822 256.43 36.5979 256.385 36.7137C256.385 36.9323 256.352 37.1638 256.352 37.3888C256.398 37.556 256.495 37.7232 256.631 37.8904C256.598 37.3824 256.586 36.8744 256.573 36.3665Z" fill="white"/>
<path d="M256.56 36.0578C256.501 34.0644 256.501 32.0711 256.527 30.0842C256.521 30.0907 256.514 30.0971 256.508 30.11C256.462 30.3479 256.417 30.5793 256.385 30.8173C256.385 32.3155 256.378 33.8072 256.385 35.3054C256.424 35.5434 256.462 35.7748 256.508 36.0128C256.527 36.0256 256.54 36.0449 256.56 36.0578Z" fill="white"/>
<path d="M256.722 36.1734C256.663 36.1541 256.611 36.1155 256.56 36.0576C256.56 36.1605 256.566 36.2634 256.573 36.3598C256.618 36.302 256.663 36.2377 256.722 36.1734Z" fill="white"/>
<path d="M32.0092 6.82666C31.7502 7.44395 31.6855 8.06123 31.9833 8.68495C32.1064 8.06766 32.0416 7.45038 32.0092 6.82666Z" fill="white"/>
<path d="M40.0844 19.7896C40.2852 19.1723 40.3758 18.555 40.0844 17.9377C40.1298 18.555 39.806 19.1723 40.0844 19.7896Z" fill="white"/>
<path d="M256.637 38.2954C256.689 38.2182 256.728 38.1346 256.741 38.0382C256.696 37.9932 256.657 37.9417 256.618 37.8967C256.631 38.0253 256.631 38.1604 256.637 38.2954Z" fill="white"/>
<path d="M42.5646 8.98716C42.8754 8.267 42.9143 7.54683 42.5905 6.82666C42.4869 7.54683 42.5516 8.267 42.5646 8.98716Z" fill="white"/>
</svg>
