<svg width="17" height="11" viewBox="0 0 17 11" fill="none" xmlns="http://www.w3.org/2000/svg">
<path d="M2.23801 5.24408C1.90563 4.91864 1.36673 4.91864 1.03435 5.24408C0.701969 5.56951 0.701969 6.09715 1.03435 6.42259L5.28994 10.5893C5.62232 10.9147 6.16122 10.9147 6.49361 10.5893L15.8559 1.42259C16.1883 1.09715 16.1883 0.569515 15.8559 0.244078C15.5235 -0.0813592 14.9846 -0.0813592 14.6522 0.244078L5.89177 8.82149L2.23801 5.24408Z" fill="black"/>
<mask id="mask0_26_1901" style="mask-type:luminance" maskUnits="userSpaceOnUse" x="0" y="0" width="17" height="11">
<path d="M2.23801 5.24408C1.90563 4.91864 1.36673 4.91864 1.03435 5.24408C0.701969 5.56951 0.701969 6.09715 1.03435 6.42259L5.28994 10.5893C5.62232 10.9147 6.16122 10.9147 6.49361 10.5893L15.8559 1.42259C16.1883 1.09715 16.1883 0.569515 15.8559 0.244078C15.5235 -0.0813592 14.9846 -0.0813592 14.6522 0.244078L5.89177 8.82149L2.23801 5.24408Z" fill="white"/>
</mask>
<g mask="url(#mask0_26_1901)">
<rect x="-1.76828" y="-5" width="20.4268" height="20" fill="#0093DD"/>
</g>
</svg>
