<svg width="20" height="16" viewBox="0 0 20 16" fill="none" xmlns="http://www.w3.org/2000/svg">
<path fill-rule="evenodd" clip-rule="evenodd" d="M0.74528 6.50623C0.424973 7.00219 0.205117 7.39304 0.0879773 7.62732C-0.0293258 7.86193 -0.0293258 8.13807 0.0879773 8.37268C0.205117 8.60696 0.424973 8.99781 0.74528 9.49377C1.27542 10.3146 1.90094 11.135 2.62122 11.9033C4.71776 14.1396 7.1835 15.5 10 15.5C12.8165 15.5 15.2822 14.1396 17.3788 11.9033C18.0991 11.135 18.7246 10.3146 19.2547 9.49377C19.575 8.99781 19.7949 8.60696 19.912 8.37268C20.0293 8.13807 20.0293 7.86193 19.912 7.62732C19.7949 7.39304 19.575 7.00219 19.2547 6.50623C18.7246 5.68537 18.0991 4.86502 17.3788 4.09672C15.2822 1.86041 12.8165 0.5 10 0.5C7.1835 0.5 4.71776 1.86041 2.62122 4.09672C1.90094 4.86502 1.27542 5.68537 0.74528 6.50623ZM3.83712 10.7634C3.19022 10.0733 2.62433 9.33121 2.14535 8.58956C2.00941 8.37906 1.88883 8.18136 1.78394 8C1.88883 7.81864 2.00941 7.62094 2.14535 7.41044C2.62433 6.6688 3.19022 5.92665 3.83712 5.23662C5.64684 3.30626 7.71234 2.16667 10 2.16667C12.2877 2.16667 14.3532 3.30626 16.1629 5.23662C16.8098 5.92665 17.3757 6.6688 17.8547 7.41044C17.9906 7.62094 18.1112 7.81864 18.2161 8C18.1112 8.18136 17.9906 8.37906 17.8547 8.58956C17.3757 9.33121 16.8098 10.0733 16.1629 10.7634C14.3532 12.6937 12.2877 13.8333 10 13.8333C7.71234 13.8333 5.64684 12.6937 3.83712 10.7634ZM9.99999 11.3333C8.15904 11.3333 6.66666 9.84095 6.66666 8C6.66666 6.15905 8.15904 4.66667 9.99999 4.66667C11.8409 4.66667 13.3333 6.15905 13.3333 8C13.3333 9.84095 11.8409 11.3333 9.99999 11.3333ZM11.6667 8C11.6667 8.92048 10.9205 9.66667 10 9.66667C9.07952 9.66667 8.33333 8.92048 8.33333 8C8.33333 7.07953 9.07952 6.33333 10 6.33333C10.9205 6.33333 11.6667 7.07953 11.6667 8Z" fill="black"/>
<mask id="mask0_26_1862" style="mask-type:luminance" maskUnits="userSpaceOnUse" x="0" y="0" width="20" height="16">
<path fill-rule="evenodd" clip-rule="evenodd" d="M0.74528 6.50623C0.424973 7.00219 0.205117 7.39304 0.0879773 7.62732C-0.0293258 7.86193 -0.0293258 8.13807 0.0879773 8.37268C0.205117 8.60696 0.424973 8.99781 0.74528 9.49377C1.27542 10.3146 1.90094 11.135 2.62122 11.9033C4.71776 14.1396 7.1835 15.5 10 15.5C12.8165 15.5 15.2822 14.1396 17.3788 11.9033C18.0991 11.135 18.7246 10.3146 19.2547 9.49377C19.575 8.99781 19.7949 8.60696 19.912 8.37268C20.0293 8.13807 20.0293 7.86193 19.912 7.62732C19.7949 7.39304 19.575 7.00219 19.2547 6.50623C18.7246 5.68537 18.0991 4.86502 17.3788 4.09672C15.2822 1.86041 12.8165 0.5 10 0.5C7.1835 0.5 4.71776 1.86041 2.62122 4.09672C1.90094 4.86502 1.27542 5.68537 0.74528 6.50623ZM3.83712 10.7634C3.19022 10.0733 2.62433 9.33121 2.14535 8.58956C2.00941 8.37906 1.88883 8.18136 1.78394 8C1.88883 7.81864 2.00941 7.62094 2.14535 7.41044C2.62433 6.6688 3.19022 5.92665 3.83712 5.23662C5.64684 3.30626 7.71234 2.16667 10 2.16667C12.2877 2.16667 14.3532 3.30626 16.1629 5.23662C16.8098 5.92665 17.3757 6.6688 17.8547 7.41044C17.9906 7.62094 18.1112 7.81864 18.2161 8C18.1112 8.18136 17.9906 8.37906 17.8547 8.58956C17.3757 9.33121 16.8098 10.0733 16.1629 10.7634C14.3532 12.6937 12.2877 13.8333 10 13.8333C7.71234 13.8333 5.64684 12.6937 3.83712 10.7634ZM9.99999 11.3333C8.15904 11.3333 6.66666 9.84095 6.66666 8C6.66666 6.15905 8.15904 4.66667 9.99999 4.66667C11.8409 4.66667 13.3333 6.15905 13.3333 8C13.3333 9.84095 11.8409 11.3333 9.99999 11.3333ZM11.6667 8C11.6667 8.92048 10.9205 9.66667 10 9.66667C9.07952 9.66667 8.33333 8.92048 8.33333 8C8.33333 7.07953 9.07952 6.33333 10 6.33333C10.9205 6.33333 11.6667 7.07953 11.6667 8Z" fill="white"/>
</mask>
<g mask="url(#mask0_26_1862)">
<rect y="-2" width="20" height="20" fill="#0093DD"/>
</g>
</svg>
