<svg width="22" height="22" viewBox="0 0 22 22" fill="none" xmlns="http://www.w3.org/2000/svg">
<path fill-rule="evenodd" clip-rule="evenodd" d="M6.31429 0.25H15.6857C19.3313 0.25 21.75 2.8479 21.75 6.58516V15.4148C21.75 19.1521 19.3313 21.75 15.6857 21.75H6.31429C2.66866 21.75 0.25 19.1521 0.25 15.4148V6.58516C0.25 2.85139 2.67505 0.25 6.31429 0.25ZM15.6857 1.75H6.31429C3.52792 1.75 1.75 3.6572 1.75 6.58516V15.4148C1.75 18.3467 3.522 20.25 6.31429 20.25H15.6857C18.478 20.25 20.25 18.3467 20.25 15.4148V6.58516C20.25 3.65331 18.478 1.75 15.6857 1.75ZM11.7813 5.81736C11.7316 5.45128 11.4178 5.16913 11.0381 5.16913C10.6239 5.16913 10.2881 5.50492 10.2881 5.91913V16.0618L10.2949 16.1636C10.3446 16.5296 10.6584 16.8118 11.0381 16.8118C11.4523 16.8118 11.7881 16.476 11.7881 16.0618V5.91913L11.7813 5.81736ZM7.11457 9.09993C7.06491 8.73385 6.75112 8.4517 6.37142 8.4517C5.95721 8.4517 5.62142 8.78749 5.62142 9.2017V16.0619L5.62827 16.1637C5.67793 16.5297 5.99172 16.8119 6.37142 16.8119C6.78563 16.8119 7.12142 16.4761 7.12142 16.0619V9.2017L7.11457 9.09993ZM15.6286 12.0768C16.0083 12.0768 16.3221 12.359 16.3718 12.725L16.3786 12.8268V16.0619C16.3786 16.4761 16.0428 16.8119 15.6286 16.8119C15.2489 16.8119 14.9351 16.5297 14.8854 16.1637L14.8786 16.0619V12.8268C14.8786 12.4126 15.2144 12.0768 15.6286 12.0768Z" fill="white"/>
</svg>
