<svg width="20" height="20" viewBox="0 0 20 20" fill="none" xmlns="http://www.w3.org/2000/svg">
<path d="M3.22588 1.58831C5.39179 -0.366105 12.9494 -0.788064 16.0139 1.87708C18.308 3.87216 18.8848 5.80501 19.0298 6.65079C19.0715 6.89451 18.8694 7.09433 18.6131 7.0919L11.9356 7.02881C11.9356 7.02881 10.7835 7.02881 10.0231 7.67373C9.46402 8.14796 8.92981 8.9215 8.68621 9.29774C8.59886 9.43264 8.44675 9.51712 8.28174 9.51712H1.41424C1.15637 9.51712 0.9499 9.31591 0.963221 9.0677C1.03975 7.6418 1.42005 3.21782 3.22588 1.58831Z" fill="#9CA3B0"/>
<path d="M11.4105 9.1293C11.275 9.23022 11.0982 9.41186 10.7924 9.77884C10.1327 10.5705 9.54036 11.0517 8.61292 11.268C7.8255 11.4516 6.80972 11.4339 5.37855 11.4089H5.37822L5.14904 11.405C3.98488 11.3851 2.87322 11.3851 2.05205 11.3901C1.8291 11.3914 1.62771 11.3931 1.45265 11.3949C1.30545 11.3964 1.17685 11.398 1.06972 11.3994C0.952465 11.4009 0.860929 11.4023 0.798847 11.4033L0.710462 11.4048L0.706051 11.4049L0.705016 11.4049H0.704769C0.323031 11.4121 0.00758225 11.1197 0.00013425 10.7518C-0.00731375 10.3839 0.296074 10.0798 0.677767 10.0726L0.678262 10.0726L0.740749 10.0715L0.775626 10.071C0.839035 10.0699 0.931989 10.0685 1.05075 10.0669C1.28825 10.0638 1.62909 10.06 2.04336 10.0575C2.87151 10.0525 3.99487 10.0525 5.1735 10.0726C6.8232 10.1008 7.67668 10.1153 8.28784 9.97276C8.80047 9.85323 9.15282 9.61849 9.71448 8.94442C10.0194 8.57851 10.2861 8.28265 10.5654 8.07474C10.8783 7.84173 11.1904 7.72956 11.5522 7.68696C11.8247 7.6549 12.1429 7.6626 12.4818 7.6708H12.4825C12.5306 7.67197 12.5792 7.67317 12.6281 7.67423C13.0454 7.6834 13.576 7.69004 14.2943 7.65248L14.3169 7.65128L14.3395 7.65152C15.5535 7.66454 16.794 7.66454 17.7318 7.66128C17.9077 7.66067 18.0729 7.65996 18.2252 7.65918C18.4787 7.65788 18.6965 7.65645 18.8686 7.65519C19.0063 7.65417 19.1146 7.65326 19.1885 7.65258L19.2943 7.65161L19.2996 7.65154L19.301 7.65152H19.3013C19.6831 7.6476 19.9959 7.94272 20 8.31067C20.004 8.67862 19.6979 8.9801 19.3161 8.98403H19.3156L19.3142 8.98405L19.3086 8.98409L19.2013 8.98511C19.1267 8.98576 19.0177 8.98669 18.8792 8.98771C18.7319 8.9888 18.5513 8.98999 18.3437 8.99112C18.161 8.99212 17.9573 8.99307 17.7368 8.99385C16.8012 8.9971 15.5628 8.99713 14.3465 8.98426C13.5902 9.02311 13.0275 9.01593 12.5966 9.00645C12.5488 9.00541 12.5034 9.00437 12.4602 9.00339C12.0894 8.99496 11.8846 8.99032 11.7198 9.00971C11.5862 9.02543 11.5124 9.05345 11.4105 9.1293Z" fill="#9CA3B0"/>
<path d="M6.8434 11.9157H5.43787C5.43787 11.9157 5.73741 14.492 6.65907 15.4471C7.58073 16.4021 9.35493 16.5131 9.35493 16.5131C9.35493 16.5131 9.87937 17.7435 10.3688 18.4453C10.8316 19.109 11.7512 20 11.7512 20L12.6268 19.045C12.6268 19.045 11.8778 18.3041 11.4978 17.7568C11.1307 17.2281 10.7144 16.3132 10.7144 16.3132C10.7144 16.3132 11.7512 15.0473 12.189 14.1145C12.6268 13.1817 13.5715 9.45049 13.5715 9.45049H12.189C12.189 9.45049 11.8441 11.3503 11.3826 12.4932C11.3029 12.6906 11.2247 12.8958 11.1465 13.1012C10.782 14.0587 10.4161 15.0199 9.88488 15.2027C9.23972 15.4248 8.45631 15.2694 7.58073 14.3588C6.70515 13.4482 6.8434 11.9157 6.8434 11.9157Z" fill="#9CA3B0"/>
</svg>
