<svg width="21" height="20" viewBox="0 0 21 20" fill="none" xmlns="http://www.w3.org/2000/svg">
<g opacity="0.6">
<circle cx="8" cy="10" r="1" fill="#D9D9D9"/>
<circle cx="11" cy="10" r="1" fill="#D9D9D9"/>
<circle cx="14" cy="10" r="1" fill="#D9D9D9"/>
<path fill-rule="evenodd" clip-rule="evenodd" d="M15.3244 0.759326L5.88787 0.759277C2.60812 0.759277 0.25 3.44614 0.25 6.90144V13.5502C0.25 17.0055 2.6081 19.6923 5.88787 19.6923H15.3158C16.8927 19.6744 18.3841 18.9997 19.4507 17.8274C20.5139 16.659 21.0625 15.0981 20.9708 13.507L20.972 6.90144C21.0625 5.35358 20.5139 3.79259 19.4507 2.62418C18.3841 1.45194 16.8927 0.777246 15.3244 0.759326ZM5.88787 2.25928L15.3072 2.25923C16.4576 2.27237 17.5539 2.7683 18.3413 3.63368C19.1321 4.50287 19.5419 5.66856 19.4732 6.85825L19.472 13.5502C19.5419 14.7831 19.1322 15.9487 18.3413 16.818C17.5538 17.6834 16.4576 18.1793 15.3073 18.1924L5.88787 18.1923C3.48324 18.1923 1.75 16.2175 1.75 13.5502V6.90144C1.75 4.23417 3.48326 2.25928 5.88787 2.25928Z" fill="white"/>
</g>
</svg>
